<svg version="1.1" xmlns="http://www.w3.org/2000/svg" xmlns:xlink="http://www.w3.org/1999/xlink" viewBox="0 0 2048 2048" xml:space="preserve">
  <path fill="#F9FAF8" d="M1185.094482,595.302368 C1177.494141,617.105957 1169.899048,638.497375 1162.546509,659.971924 C1154.013306,684.895020 1145.771973,709.918091 1137.258179,734.848022 C1128.267822,761.174133 1119.036133,787.417908 1110.039062,813.741760 C1101.581787,838.486694 1093.322754,863.299438 1084.916138,888.061768 C1081.094604,899.318726 1077.127808,910.526306 1072.888428,922.730652 C1077.809692,922.730652 1081.750122,922.737488 1085.690674,922.729675 C1143.457275,922.614868 1201.223755,922.488708 1258.990356,922.391052 C1268.667725,922.374695 1274.641357,932.022400 1269.567383,940.176208 C1263.616455,949.739075 1256.986084,958.884338 1250.528687,968.125671 C1240.735107,982.141663 1230.806519,996.063416 1220.989136,1010.062927 C1202.030518,1037.097534 1183.053101,1064.119141 1164.187012,1091.218140 C1140.750122,1124.882446 1117.455566,1158.645874 1094.023560,1192.313477 C1083.585449,1207.311401 1072.887817,1222.128662 1062.441895,1237.121094 C1050.591797,1254.128540 1039.002075,1271.317871 1027.095825,1288.285400 C1014.920593,1305.635986 1002.427612,1322.763306 990.207153,1340.082520 C980.058472,1354.465454 970.143188,1369.012939 960.052490,1383.437012 C947.707642,1401.083618 935.228271,1418.636108 922.915344,1436.304688 C906.312988,1460.128418 889.917603,1484.097412 873.138916,1507.795654 C871.031128,1510.772583 867.402100,1513.884277 864.020752,1514.526367 C852.787231,1516.659668 845.933777,1507.089111 850.044739,1496.197632 C853.484924,1487.083374 856.470764,1477.798584 859.704712,1468.605835 C863.988831,1456.427979 868.457336,1444.313232 872.597107,1432.086792 C879.182007,1412.638672 885.414001,1393.070312 892.071106,1373.647461 C897.858398,1356.762207 904.116455,1340.038818 910.001160,1323.186401 C914.912659,1309.120605 919.560303,1294.963013 924.369141,1280.861206 C929.922913,1264.574707 935.519409,1248.302734 941.108276,1232.028198 C947.029114,1214.787109 952.963440,1197.550415 958.890381,1180.311523 C964.586487,1163.743896 970.285950,1147.177734 975.961304,1130.603149 C976.275879,1129.684570 976.383850,1128.695190 976.667542,1127.365967 C962.668884,1127.365967 948.884155,1127.355469 935.099365,1127.367920 C887.444092,1127.411377 839.788696,1127.433350 792.133606,1127.555420 C787.206238,1127.568115 783.225525,1125.991699 780.683960,1121.830566 C777.934570,1117.328979 778.046631,1112.575562 781.109070,1108.213013 C788.432495,1097.780884 795.948425,1087.483887 803.261597,1077.044678 C813.720215,1062.115601 823.992676,1047.056152 834.478027,1032.146118 C852.956055,1005.870544 871.596558,979.709167 890.048889,953.415527 C901.378967,937.270935 912.376892,920.893127 923.719666,904.757629 C938.514526,883.711365 953.585266,862.859009 968.380493,841.812988 C978.815857,826.968750 988.910522,811.885193 999.303467,797.010620 C1010.560730,780.898865 1022.033875,764.938049 1033.328491,748.852234 C1046.048950,730.735535 1058.652222,712.536499 1071.348511,694.402649 C1090.291626,667.346497 1109.344238,640.366699 1128.213867,613.259521 C1144.720825,589.546509 1161.088623,565.736145 1177.398438,541.887085 C1180.499023,537.353149 1184.421143,534.887268 1189.890381,535.161926 C1197.755249,535.556763 1203.164795,543.044250 1200.608276,550.793945 C1195.727539,565.588440 1190.367920,580.224976 1185.094482,595.302368z"/>
</svg>
